<svg xmlns="http://www.w3.org/2000/svg" xmlns:xlink="http://www.w3.org/1999/xlink" width="157.94403076171875" height="70" viewBox="0 0 157.94403076171875 70" fill="none">
<path d="M36.1434 0C44.589 0.409054 51.9732 3.35597 58.2957 8.84074C59.6629 10.0276 60.3825 11.4852 60.4545 13.2136C60.6484 17.9235 56.2877 21.1599 51.9055 19.5654C50.5784 19.0815 49.6218 18.0833 48.4885 17.2623C38.9011 10.3272 25.8709 11.55 18.0071 20.3821C10.0786 29.292 11.3498 42.8772 20.5666 50.3525C28.1288 56.4839 38.578 57.1753 46.9718 52.0765C48.4885 51.1562 49.8157 49.7389 51.4272 49.0951C52.9324 48.4931 54.3759 48.4469 55.7577 48.9568C60.5838 50.7327 61.6998 56.7216 57.6881 60.0358C35.622 78.2617 1.5426 64.4691 0 35.229L0 33.0988C0.883334 14.4839 15.4734 0.916049 33.8037 0L36.1434 0Z"   fill="#B9FCC5" >
</path>
<path d="M143.113 0C146.108 0.401852 148.637 2.38519 149.12 5.41852C149.563 8.19259 148.482 10.4309 146.448 12.2586C142.208 16.0741 138.115 20.5852 135.408 25.6364C135.404 25.6446 135.402 25.6531 135.4 25.662C135.398 25.6709 135.397 25.6799 135.398 25.689C135.398 25.6981 135.399 25.7069 135.402 25.7156C135.405 25.7243 135.409 25.7326 135.413 25.7403C135.418 25.748 135.424 25.7551 135.43 25.7614C135.437 25.7678 135.444 25.7732 135.452 25.7777C135.46 25.7823 135.468 25.7857 135.477 25.7881C135.485 25.7905 135.494 25.7918 135.503 25.792C148.87 25.6883 158.78 35.9679 157.888 49.4062C157.676 52.6352 156.876 55.513 155.488 58.0395C151.553 65.2007 145.454 69.1876 137.192 70L134.56 70C128.111 69.3549 122.944 66.7074 119.06 62.058C115.708 58.0438 113.976 53.3167 113.959 48.0796C113.924 35.2074 119.888 22.7198 127.747 12.4963C131.367 7.78642 134.956 4.04733 138.515 1.27901C139.331 0.642388 140.47 0.216049 141.932 0L143.113 0ZM144.91 47.9068C144.91 47.759 144.906 47.6112 144.899 47.4639C144.892 47.3165 144.881 47.1696 144.866 47.0223C144.852 46.8754 144.834 46.7289 144.812 46.5828C144.791 46.4368 144.766 46.2916 144.737 46.1468C144.708 46.0021 144.676 45.8578 144.64 45.7147C144.604 45.5713 144.565 45.4291 144.522 45.2878C144.48 45.1465 144.433 45.0061 144.384 44.8674C144.334 44.7283 144.281 44.5904 144.225 44.4543C144.168 44.3178 144.109 44.183 144.046 44.0494C143.983 43.9159 143.917 43.7837 143.848 43.6536C143.778 43.5236 143.705 43.3952 143.63 43.2686C143.554 43.1419 143.475 43.0171 143.393 42.8943C143.312 42.7716 143.227 42.6509 143.139 42.5323C143.052 42.4136 142.961 42.2973 142.867 42.1832C142.774 42.069 142.678 41.9572 142.579 41.8478C142.48 41.7384 142.379 41.6315 142.274 41.5271C142.17 41.4227 142.064 41.3209 141.955 41.2217C141.845 41.1226 141.734 41.0262 141.62 40.9325C141.507 40.8389 141.39 40.748 141.272 40.6601C141.154 40.5721 141.034 40.4871 140.911 40.4051C140.789 40.323 140.664 40.2441 140.538 40.1682C140.412 40.0922 140.284 40.0195 140.154 39.9499C140.024 39.8803 139.893 39.8139 139.759 39.7508C139.626 39.6877 139.492 39.6278 139.355 39.5713C139.22 39.5148 139.082 39.4617 138.944 39.412C138.805 39.3622 138.665 39.3159 138.524 39.2731C138.384 39.2302 138.242 39.1908 138.099 39.1549C137.956 39.1191 137.812 39.0867 137.668 39.0579C137.523 39.0291 137.379 39.0039 137.233 38.9822C137.087 38.9606 136.941 38.9425 136.795 38.928C136.648 38.9135 136.501 38.9027 136.354 38.8954C136.207 38.8882 136.06 38.8846 135.913 38.8846C135.765 38.8846 135.618 38.8882 135.471 38.8955C135.324 38.9027 135.177 38.9136 135.031 38.928C134.884 38.9425 134.738 38.9606 134.592 38.9822C134.447 39.0039 134.302 39.0291 134.158 39.0579C134.013 39.0867 133.87 39.1191 133.727 39.155C133.584 39.1908 133.442 39.2302 133.301 39.2731C133.16 39.3159 133.02 39.3622 132.882 39.412C132.743 39.4617 132.606 39.5148 132.47 39.5713C132.334 39.6278 132.199 39.6877 132.066 39.7508C131.933 39.8139 131.801 39.8803 131.671 39.9499C131.542 40.0195 131.414 40.0922 131.287 40.1682C131.161 40.2441 131.037 40.323 130.914 40.4051C130.792 40.4871 130.672 40.5721 130.553 40.6601C130.435 40.748 130.319 40.8389 130.205 40.9325C130.091 41.0262 129.98 41.1226 129.871 41.2217C129.761 41.3209 129.655 41.4227 129.551 41.5271C129.447 41.6315 129.345 41.7384 129.246 41.8478C129.147 41.9572 129.051 42.069 128.958 42.1832C128.864 42.2973 128.774 42.4136 128.686 42.5323C128.599 42.6509 128.514 42.7716 128.432 42.8943C128.35 43.0171 128.271 43.1419 128.196 43.2686C128.12 43.3952 128.047 43.5236 127.978 43.6536C127.909 43.7837 127.842 43.9159 127.78 44.0494C127.717 44.183 127.657 44.3178 127.6 44.4543C127.544 44.5904 127.491 44.7283 127.442 44.8674C127.392 45.0061 127.346 45.1465 127.303 45.2878C127.26 45.4291 127.221 45.5713 127.185 45.7147C127.149 45.8578 127.117 46.0021 127.088 46.1468C127.06 46.2916 127.034 46.4368 127.013 46.5828C126.991 46.7289 126.973 46.8754 126.959 47.0223C126.944 47.1696 126.934 47.3165 126.926 47.4639C126.919 47.6112 126.916 47.759 126.916 47.9068C126.916 48.0546 126.919 48.2023 126.926 48.3497C126.934 48.497 126.944 48.6439 126.959 48.7913C126.973 48.9382 126.991 49.0847 127.013 49.2307C127.034 49.3768 127.06 49.522 127.088 49.6667C127.117 49.8115 127.149 49.9558 127.185 50.0988C127.221 50.2423 127.26 50.3844 127.303 50.5257C127.346 50.667 127.392 50.8075 127.442 50.9462C127.491 51.0853 127.544 51.2231 127.6 51.3593C127.657 51.4958 127.717 51.6306 127.78 51.7641C127.842 51.8977 127.909 52.0299 127.978 52.1599C128.047 52.29 128.12 52.4183 128.196 52.5449C128.271 52.6715 128.35 52.7964 128.432 52.9191C128.514 53.0418 128.599 53.1624 128.686 53.2812C128.774 53.4001 128.864 53.5163 128.958 53.6304C129.051 53.7444 129.147 53.8564 129.246 53.9657C129.345 54.075 129.447 54.1822 129.551 54.2863C129.655 54.3909 129.761 54.4928 129.871 54.5918C129.98 54.6907 130.091 54.7871 130.205 54.8809C130.319 54.9746 130.435 55.0658 130.553 55.1535C130.671 55.2412 130.792 55.3264 130.914 55.4085C131.037 55.4906 131.161 55.5696 131.287 55.6452C131.414 55.7213 131.542 55.7943 131.671 55.8639C131.801 55.9335 131.933 55.9996 132.066 56.0626C132.199 56.1257 132.334 56.1858 132.47 56.2424C132.606 56.299 132.743 56.3517 132.882 56.4014C133.02 56.4511 133.16 56.4978 133.301 56.5406C133.442 56.5833 133.584 56.6227 133.727 56.6585C133.87 56.6944 134.013 56.7268 134.157 56.7557C134.302 56.7847 134.447 56.8097 134.592 56.8314C134.738 56.853 134.884 56.8711 135.031 56.8854C135.177 56.9001 135.324 56.9109 135.471 56.9182C135.618 56.9256 135.765 56.929 135.913 56.929C136.06 56.929 136.207 56.9256 136.354 56.9182C136.501 56.9109 136.648 56.9001 136.795 56.8854C136.941 56.8711 137.087 56.853 137.233 56.8314C137.379 56.8097 137.523 56.7847 137.668 56.7557C137.812 56.7268 137.956 56.6944 138.099 56.6585C138.242 56.6227 138.384 56.5833 138.524 56.5406C138.665 56.4978 138.805 56.4511 138.944 56.4014C139.082 56.3517 139.22 56.299 139.355 56.2424C139.492 56.1858 139.626 56.1257 139.759 56.0626C139.893 55.9996 140.024 55.9335 140.154 55.8639C140.284 55.7943 140.412 55.7213 140.538 55.6452C140.664 55.5696 140.789 55.4906 140.911 55.4085C141.034 55.3264 141.154 55.2412 141.272 55.1535C141.39 55.0658 141.507 54.9746 141.62 54.8809C141.734 54.7871 141.845 54.6907 141.955 54.5918C142.064 54.4928 142.17 54.3909 142.274 54.2863C142.379 54.1822 142.48 54.075 142.579 53.9657C142.678 53.8564 142.774 53.7444 142.867 53.6304C142.961 53.5163 143.052 53.4001 143.139 53.2812C143.227 53.1624 143.312 53.0418 143.393 52.9191C143.475 52.7964 143.554 52.6715 143.63 52.5449C143.705 52.4183 143.778 52.29 143.848 52.1599C143.917 52.0299 143.983 51.8977 144.046 51.7641C144.109 51.6306 144.168 51.4958 144.225 51.3593C144.281 51.2231 144.334 51.0853 144.384 50.9462C144.433 50.8075 144.48 50.667 144.522 50.5257C144.565 50.3844 144.604 50.2423 144.64 50.0988C144.676 49.9558 144.708 49.8115 144.737 49.6667C144.766 49.522 144.791 49.3768 144.812 49.2307C144.834 49.0847 144.852 48.9382 144.866 48.7913C144.881 48.6439 144.892 48.497 144.899 48.3497C144.906 48.2023 144.91 48.0546 144.91 47.9068Z"   fill="#B9FCC5" >
</path>
<rect  x="79.28662109375" y="1.244140625" width="14.029921085687715" height="66.99260819993728" transform="rotate(-0.10027956626038405 79.28662109375 1.244140625)" rx="7.014960542843857"    fill="#B9FCC5" >
</rect>
</svg>
